Coordinates
version=1
nRows=18
nColumns=50
inDegrees=no

Units are S.I. units (second, meters, Newtons, ...)
If the header above contains a line with 'inDegrees', this indicates whether rotational values are in degrees (yes) or radians (no).

endheader
time	pelvis_tilt	pelvis_list	pelvis_rotation	pelvis_tx	pelvis_ty	pelvis_tz	hip_flexion_r	hip_adduction_r	hip_rotation_r	knee_angle_r	ankle_angle_r	subtalar_angle_r	mtp_angle_r	hip_flexion_l	hip_adduction_l	hip_rotation_l	knee_angle_l	ankle_angle_l	subtalar_angle_l	mtp_angle_l	lumbar_bending	lumbar_extension	lumbar_twist	thorax_bending	thorax_extension	thorax_twist	head_bending	head_extension	head_twist	scapula_abduction_r	scapula_elevation_r	scapula_upward_rot_r	shoulder_r_x	shoulder_r_y	shoulder_r_z	elbow_flexion_r	pro_sup_r	wrist_flexion_r	wrist_deviation_r	scapula_abduction_l	scapula_elevation_l	scapula_upward_rot_l	shoulder_l_x	shoulder_l_y	shoulder_l_z	elbow_flexion_l	pro_sup_l	wrist_flexion_l	wrist_deviation_l
17.1917	-0.00814251	0.0591057	-0.479038	-0.609787	0.984664	-0.407351	0.0245599	-0.0282527	-0.129873	0.330624	0.372112	0.0162138	-0.0985458	0.222647	-0.0252079	-0.0979086	0.588577	0.276039	-0.313439	0.0439002	6.28058	-0.403808	6.27315	0.0223674	0.378205	-6.15463	-0.120171	-0.214035	0.378904	-1.36529	0.000870735	6.11532	-0.619572	0.368887	-0.507125	0.737148	-0.533144	0.0313786	-0.232556	-1.37242	0.0334603	-0.201439	0.716707	-0.257993	-0.414735	-5.62561	-0.632073	-0.0347853	-0.314278
17.2	-0.0106002	0.0563384	-0.460945	-0.610027	0.984279	-0.409842	0.0248504	-0.0254122	-0.143379	0.33115	0.370969	0.0116153	-0.0985495	0.213625	-0.0303698	-0.110302	0.589917	0.274413	-0.327539	0.0517691	6.28472	-0.40176	6.27362	0.0203771	0.379227	-6.15576	-0.115121	-0.215389	0.367696	-1.36476	0.000408559	6.11172	-0.619979	0.3665	-0.507185	0.73457	-0.536403	0.0233782	-0.23041	-1.37251	0.0346321	-0.201948	0.712986	-0.261794	-0.418534	-5.62993	-0.636869	-0.0358384	-0.312211
17.2083	-0.0138456	0.0531914	-0.442455	-0.610218	0.983859	-0.412465	0.0259595	-0.0222297	-0.158403	0.33202	0.369445	0.0079742	-0.0987756	0.205348	-0.0360272	-0.12074	0.591228	0.272086	-0.339164	0.0587481	6.28984	-0.398931	6.27307	0.0183935	0.378704	-6.15689	-0.111176	-0.21592	0.358321	-1.36431	0.000148511	6.10884	-0.619882	0.365925	-0.506305	0.732952	-0.540491	0.0158317	-0.22924	-1.37303	0.0352626	-0.20304	0.70994	-0.265346	-0.422137	-5.63308	-0.639882	-0.0341858	-0.310406
17.2167	-0.0169986	0.050007	-0.42399	-0.610358	0.98342	-0.41513	0.0274825	-0.0192065	-0.173259	0.33335	0.367871	0.00405855	-0.0988095	0.196923	-0.0414288	-0.129481	0.591769	0.269998	-0.347544	0.0647715	6.29521	-0.396542	6.27327	0.0164514	0.378535	-6.1589	-0.107875	-0.214636	0.349011	-1.36508	0.000335744	6.1081	-0.618366	0.364708	-0.504238	0.72881	-0.539187	0.0146617	-0.229298	-1.37423	0.0356909	-0.204009	0.707242	-0.268631	-0.424677	-5.63772	-0.640933	-0.0305861	-0.309828
17.225	-0.0196467	0.0472367	-0.405792	-0.610641	0.982954	-0.417922	0.0297539	-0.017026	-0.187843	0.335749	0.366572	-0.000574073	-0.0985776	0.188231	-0.0457195	-0.136102	0.590872	0.268782	-0.353786	0.0699951	6.29996	-0.395288	6.275	0.0144111	0.380349	-6.16231	-0.103804	-0.212939	0.339301	-1.36602	0.000389164	6.10781	-0.616289	0.36219	-0.50277	0.72311	-0.535412	0.0166644	-0.2297	-1.37528	0.0363577	-0.204388	0.704353	-0.271756	-0.426867	-5.64331	-0.640291	-0.0269775	-0.309891
17.2333	-0.0224216	0.044833	-0.387409	-0.611058	0.982413	-0.420956	0.0330149	-0.0155792	-0.202863	0.339223	0.365491	-0.00546667	-0.0981973	0.179879	-0.0490605	-0.14041	0.58868	0.268875	-0.358774	0.0744738	6.30431	-0.393938	6.27726	0.012085	0.383497	-6.16665	-0.0981959	-0.212381	0.329822	-1.36592	2.56767e-05	6.1055	-0.615563	0.359884	-0.503165	0.718817	-0.534641	0.0193399	-0.228587	-1.37561	0.0374614	-0.204519	0.701387	-0.274307	-0.429473	-5.64779	-0.637283	-0.0234597	-0.309238
17.2417	-0.0256877	0.0420549	-0.368269	-0.611455	0.981832	-0.424182	0.0361555	-0.0137986	-0.218332	0.342255	0.364423	-0.0100709	-0.0976626	0.172068	-0.0525001	-0.142312	0.585754	0.270533	-0.361655	0.0779457	6.30895	-0.391516	6.27881	0.0100548	0.386237	-6.17118	-0.0925685	-0.212889	0.320134	-1.36522	-9.04866e-05	6.10228	-0.615651	0.3585	-0.503301	0.714259	-0.535	0.0224551	-0.226261	-1.37536	0.0388686	-0.205164	0.698423	-0.27638	-0.432044	-5.65101	-0.633469	-0.0220884	-0.308563
17.25	-0.0291552	0.0386932	-0.349139	-0.611845	0.981292	-0.42744	0.0386932	-0.0113692	-0.233852	0.344112	0.363748	-0.0139532	-0.0971254	0.164663	-0.0565919	-0.143058	0.582484	0.273676	-0.36068	0.0799013	6.3138	-0.388725	6.27988	0.00884335	0.388072	-6.17568	-0.0889657	-0.213285	0.309733	-1.36488	8.76825e-05	6.10028	-0.614856	0.358106	-0.501564	0.707394	-0.532279	0.0236899	-0.224815	-1.37531	0.0399607	-0.206663	0.695487	-0.27948	-0.434222	-5.65381	-0.632367	-0.0230545	-0.308659
17.2583	-0.0324253	0.035253	-0.331011	-0.612323	0.980804	-0.430727	0.0415875	-0.00920634	-0.248913	0.346323	0.364017	-0.0173645	-0.0969252	0.157252	-0.0607327	-0.144297	0.578302	0.277431	-0.355279	0.0802549	6.31871	-0.386816	6.28126	0.0077021	0.389738	-6.1797	-0.0869333	-0.212598	0.299997	-1.36527	-0.000253779	6.09886	-0.613686	0.359028	-0.499883	0.702055	-0.52779	0.0225284	-0.223744	-1.37629	0.0401281	-0.208298	0.692387	-0.285348	-0.436287	-5.65603	-0.63444	-0.0222717	-0.30901
17.2667	-0.035516	0.0318968	-0.313108	-0.612806	0.980288	-0.434212	0.0450695	-0.00784268	-0.264279	0.349455	0.36488	-0.0202022	-0.0970397	0.149396	-0.0643461	-0.145592	0.571638	0.280508	-0.346244	0.079776	6.32423	-0.385827	6.28298	0.00596668	0.39208	-6.18349	-0.0843783	-0.212315	0.293523	-1.36609	-0.000914568	6.09795	-0.611916	0.361421	-0.499835	0.699935	-0.526272	0.0195652	-0.223516	-1.37783	0.0396643	-0.209405	0.688439	-0.293501	-0.438549	-5.65837	-0.636543	-0.0207817	-0.310345
17.275	-0.0392292	0.0286674	-0.294639	-0.613163	0.979613	-0.437892	0.049212	-0.00705825	-0.281012	0.352772	0.365433	-0.0221583	-0.0970515	0.141824	-0.0675409	-0.145859	0.561677	0.282999	-0.334902	0.0787891	6.33043	-0.383994	6.28472	0.00389925	0.395251	-6.18802	-0.0804972	-0.214123	0.289673	-1.36665	-0.00104638	6.09853	-0.60772	0.365324	-0.501408	0.699023	-0.531919	0.0130584	-0.225533	-1.37903	0.0393984	-0.210205	0.683602	-0.30176	-0.441707	-5.66115	-0.636899	-0.0217078	-0.312484
17.2833	-0.0435022	0.0255878	-0.276092	-0.613535	0.978803	-0.441675	0.0537233	-0.00652589	-0.298246	0.355651	0.365541	-0.0239615	-0.0968558	0.134814	-0.0702382	-0.144885	0.547938	0.287791	-0.319884	0.0753188	6.33685	-0.381145	6.2866	0.00130014	0.398449	-6.19376	-0.0769605	-0.215515	0.283395	-1.36631	-0.00082676	6.0995	-0.601233	0.370211	-0.503657	0.699098	-0.544874	0.00271061	-0.22805	-1.37985	0.0398334	-0.210894	0.678572	-0.308861	-0.445457	-5.66253	-0.636301	-0.0246227	-0.31416
17.2917	-0.0473766	0.0226617	-0.257925	-0.614015	0.977964	-0.445578	0.0581053	-0.00645423	-0.314938	0.358451	0.366184	-0.0262315	-0.0966352	0.127402	-0.0718798	-0.14254	0.529364	0.297517	-0.29791	0.0662126	6.34322	-0.378803	6.28899	-0.00202464	0.401027	-6.2006	-0.0753718	-0.214017	0.271942	-1.36542	-0.000700634	6.09945	-0.59527	0.374258	-0.504601	0.699411	-0.557628	-0.0032157	-0.229192	-1.38074	0.0409783	-0.211104	0.673392	-0.314839	-0.448277	-5.6625	-0.634954	-0.0264809	-0.315733
17.3	-0.0506198	0.019895	-0.240255	-0.614508	0.977149	-0.449595	0.0622142	-0.00723218	-0.331565	0.361695	0.367514	-0.0275867	-0.0961306	0.119363	-0.0724215	-0.138471	0.506389	0.309337	-0.270411	0.0520593	6.34935	-0.377576	6.29201	-0.00518381	0.403641	-6.20792	-0.0747602	-0.211701	0.25902	-1.36486	-0.00043686	6.09921	-0.591343	0.376209	-0.503861	0.698592	-0.562296	0.00534693	-0.227924	-1.38189	0.0422154	-0.210816	0.667485	-0.320606	-0.450227	-5.66306	-0.632659	-0.0229263	-0.317125
17.3083	-0.0534058	0.0174365	-0.223522	-0.615131	0.976375	-0.453669	0.0665367	-0.00908242	-0.347795	0.366093	0.368874	-0.0276995	-0.0950352	0.111989	-0.0722341	-0.133715	0.482623	0.318902	-0.243694	0.0370713	6.35489	-0.377688	6.29546	-0.00748748	0.40749	-6.21457	-0.074165	-0.211241	0.249713	-1.36474	0.000135531	6.09982	-0.58913	0.375455	-0.502734	0.6969	-0.555598	0.0259649	-0.225211	-1.38291	0.0428142	-0.210709	0.66095	-0.327006	-0.45236	-5.66491	-0.629879	-0.0139264	-0.318182
17.3167	-0.0562439	0.0153652	-0.207437	-0.616009	0.975643	-0.457782	0.071134	-0.0116477	-0.364	0.370436	0.369856	-0.0267607	-0.0935247	0.106425	-0.0716954	-0.13024	0.460716	0.326944	-0.220562	0.0233933	6.35981	-0.378353	6.29874	-0.00923107	0.41197	-6.22035	-0.0737537	-0.211901	0.244782	-1.36494	0.000539607	6.10063	-0.588421	0.372386	-0.501439	0.695251	-0.541969	0.0457967	-0.224683	-1.38377	0.0425863	-0.211751	0.655288	-0.333797	-0.454431	-5.66701	-0.625955	-0.00417636	-0.319357
17.325	-0.0597518	0.0132998	-0.190768	-0.616921	0.974933	-0.461916	0.0754953	-0.0140111	-0.381118	0.373212	0.370333	-0.0255375	-0.0918685	0.102626	-0.0711104	-0.127247	0.440337	0.335711	-0.198827	0.0100517	6.3645	-0.377454	6.30125	-0.010649	0.415026	-6.22652	-0.0733758	-0.211751	0.240533	-1.365	0.000348923	6.10048	-0.587264	0.372256	-0.500037	0.695518	-0.540946	0.0517066	-0.228612	-1.38482	0.0421049	-0.213586	0.650312	-0.341503	-0.455901	-5.66853	-0.621019	0.00140444	-0.320895
17.3333	-0.0632565	0.0107345	-0.173931	-0.617801	0.974342	-0.465955	0.0795888	-0.0158499	-0.39841	0.375814	0.370546	-0.0251624	-0.090306	0.0999001	-0.0705687	-0.122276	0.42204	0.344058	-0.179184	-0.00294122	6.36871	-0.375817	6.30353	-0.0113297	0.417092	-6.23329	-0.0724117	-0.210796	0.233611	-1.3647	8.54424e-05	6.09963	-0.586199	0.374682	-0.498267	0.695402	-0.545352	0.0514327	-0.231398	-1.38566	0.0420922	-0.214849	0.644292	-0.349007	-0.456677	-5.66995	-0.614863	0.00662162	-0.321579
